<svg xmlns="http://www.w3.org/2000/svg" xmlns:xlink="http://www.w3.org/1999/xlink" id="processonSvg1000" viewBox="341.375 233.0 375.875 475.0" width="375.875" height="475.0"><defs id="ProcessOnDefs1001"><marker id="ProcessOnMarker1011" markerUnits="userSpaceOnUse" orient="auto" markerWidth="16.23606797749979" markerHeight="10.550836550532098" viewBox="-1.0 -1.3763819204711736 16.23606797749979 10.550836550532098" refX="-1.0" refY="3.8990363547948754"><path id="ProcessOnPath1012" d="M12.0 3.8990363547948754L0.0 7.798072709589751V0.0Z" stroke="#e5e5e5" stroke-width="2.0" fill="#e5e5e5" transform="matrix(1.0,0.0,0.0,1.0,0.0,0.0)"/></marker><marker id="ProcessOnMarker1019" markerUnits="userSpaceOnUse" orient="auto" markerWidth="16.23606797749979" markerHeight="10.550836550532098" viewBox="-1.0 -1.3763819204711736 16.23606797749979 10.550836550532098" refX="-1.0" refY="3.8990363547948754"><path id="ProcessOnPath1020" d="M12.0 3.8990363547948754L0.0 7.798072709589751V0.0Z" stroke="#e5e5e5" stroke-width="2.0" fill="#e5e5e5" transform="matrix(1.0,0.0,0.0,1.0,0.0,0.0)"/></marker><marker id="ProcessOnMarker1027" markerUnits="userSpaceOnUse" orient="auto" markerWidth="16.23606797749979" markerHeight="10.550836550532098" viewBox="-1.0 -1.3763819204711736 16.23606797749979 10.550836550532098" refX="-1.0" refY="3.8990363547948754"><path id="ProcessOnPath1028" d="M12.0 3.8990363547948754L0.0 7.798072709589751V0.0Z" stroke="#e5e5e5" stroke-width="2.0" fill="#e5e5e5" transform="matrix(1.0,0.0,0.0,1.0,0.0,0.0)"/></marker><marker id="ProcessOnMarker1036" markerUnits="userSpaceOnUse" orient="auto" markerWidth="16.23606797749979" markerHeight="10.550836550532098" viewBox="-1.0 -1.3763819204711736 16.23606797749979 10.550836550532098" refX="-1.0" refY="3.8990363547948754"><path id="ProcessOnPath1037" d="M12.0 3.8990363547948754L0.0 7.798072709589751V0.0Z" stroke="#e5e5e5" stroke-width="2.0" fill="#e5e5e5" transform="matrix(1.0,0.0,0.0,1.0,0.0,0.0)"/></marker><marker id="ProcessOnMarker1044" markerUnits="userSpaceOnUse" orient="auto" markerWidth="16.23606797749979" markerHeight="10.550836550532098" viewBox="-1.0 -1.3763819204711736 16.23606797749979 10.550836550532098" refX="-1.0" refY="3.8990363547948754"><path id="ProcessOnPath1045" d="M12.0 3.8990363547948754L0.0 7.798072709589751V0.0Z" stroke="#e5e5e5" stroke-width="2.0" fill="#e5e5e5" transform="matrix(1.0,0.0,0.0,1.0,0.0,0.0)"/></marker><marker id="ProcessOnMarker1053" markerUnits="userSpaceOnUse" orient="auto" markerWidth="16.23606797749979" markerHeight="10.550836550532098" viewBox="-1.0 -1.3763819204711736 16.23606797749979 10.550836550532098" refX="-1.0" refY="3.8990363547948754"><path id="ProcessOnPath1054" d="M12.0 3.8990363547948754L0.0 7.798072709589751V0.0Z" stroke="#e5e5e5" stroke-width="2.0" fill="#e5e5e5" transform="matrix(1.0,0.0,0.0,1.0,0.0,0.0)"/></marker><marker id="ProcessOnMarker1061" markerUnits="userSpaceOnUse" orient="auto" markerWidth="16.23606797749979" markerHeight="10.550836550532098" viewBox="-1.0 -1.3763819204711736 16.23606797749979 10.550836550532098" refX="-1.0" refY="3.8990363547948754"><path id="ProcessOnPath1062" d="M12.0 3.8990363547948754L0.0 7.798072709589751V0.0Z" stroke="#e5e5e5" stroke-width="2.0" fill="#e5e5e5" transform="matrix(1.0,0.0,0.0,1.0,0.0,0.0)"/></marker><marker id="ProcessOnMarker1069" markerUnits="userSpaceOnUse" orient="auto" markerWidth="16.23606797749979" markerHeight="10.550836550532098" viewBox="-1.0 -1.3763819204711736 16.23606797749979 10.550836550532098" refX="-1.0" refY="3.8990363547948754"><path id="ProcessOnPath1070" d="M12.0 3.8990363547948754L0.0 7.798072709589751V0.0Z" stroke="#e5e5e5" stroke-width="2.0" fill="#e5e5e5" transform="matrix(1.0,0.0,0.0,1.0,0.0,0.0)"/></marker></defs><g id="ProcessOnG1002"><path id="ProcessOnPath1003" d="M341.375 233.0H717.25V708.0H341.375V233.0Z" fill="none"/><g id="ProcessOnG1004"><g id="ProcessOnG1005" transform="matrix(1.0,0.0,0.0,1.0,427.0,253.0)" opacity="1.0"><path id="ProcessOnPath1006" d="M0.0 4.0Q0.0 0.0 4.0 0.0L93.0 0.0Q97.0 0.0 97.0 4.0L97.0 16.0Q97.0 20.0 93.0 20.0L4.0 20.0Q0.0 20.0 0.0 16.0Z" stroke="#a1a1a1" stroke-width="2.0" stroke-dasharray="none" opacity="1.0" fill="#8a8a8a"/><g id="ProcessOnG1007" transform="matrix(1.0,0.0,0.0,1.0,10.0,1.875)"><text id="ProcessOnText1008" fill="#ffffff" font-size="13" x="37.5" y="13.325" font-family="微软雅黑" font-weight="normal" font-style="normal" text-decoration="none" family="微软雅黑" text-anchor="middle" size="13">注册</text></g></g><g id="ProcessOnG1009"><path id="ProcessOnPath1010" d="M475.5 273.0L475.5 285.0L475.5 285.0L475.5 286.0" stroke="#e5e5e5" stroke-width="2.0" stroke-dasharray="none" fill="none" marker-end="url(#ProcessOnMarker1011)"/></g><g id="ProcessOnG1013" transform="matrix(1.0,0.0,0.0,1.0,361.375,297.0)" opacity="1.0"><path id="ProcessOnPath1014" d="M0.0 0.0L228.25 0.0L228.25 20.0L0.0 20.0Z" stroke="#a1a1a1" stroke-width="2.0" stroke-dasharray="none" opacity="1.0" fill="#8a8a8a"/><g id="ProcessOnG1015" transform="matrix(1.0,0.0,0.0,1.0,10.0,1.875)"><text id="ProcessOnText1016" fill="#ffffff" font-size="13" x="103.125" y="13.325" font-family="微软雅黑" font-weight="normal" font-style="normal" text-decoration="none" family="微软雅黑" text-anchor="middle" size="13">填写注册信息&amp;上传身份证明材料</text></g></g><g id="ProcessOnG1017"><path id="ProcessOnPath1018" d="M475.5 317.0L475.5 329.0L475.5 329.0L475.5 330.0" stroke="#e5e5e5" stroke-width="2.0" stroke-dasharray="none" fill="none" marker-end="url(#ProcessOnMarker1019)"/></g><g id="ProcessOnG1021" transform="matrix(1.0,0.0,0.0,1.0,410.25,341.0)" opacity="1.0"><path id="ProcessOnPath1022" d="M0.0 0.0L130.5 0.0L130.5 25.0L0.0 25.0Z" stroke="#a1a1a1" stroke-width="2.0" stroke-dasharray="none" opacity="1.0" fill="#8a8a8a"/><g id="ProcessOnG1023" transform="matrix(1.0,0.0,0.0,1.0,10.0,4.375)"><text id="ProcessOnText1024" fill="#ffffff" font-size="13" x="54.25" y="13.325" font-family="微软雅黑" font-weight="normal" font-style="normal" text-decoration="none" family="微软雅黑" text-anchor="middle" size="13">点击“立即注册”</text></g></g><g id="ProcessOnG1025"><path id="ProcessOnPath1026" d="M475.5 366.0L475.5 377.0L475.5 377.0L475.5 378.0" stroke="#e5e5e5" stroke-width="2.0" stroke-dasharray="none" fill="none" marker-end="url(#ProcessOnMarker1027)"/></g><g id="ProcessOnG1029" transform="matrix(1.0,0.0,0.0,1.0,412.25,388.0)" opacity="1.0"><path id="ProcessOnPath1030" d="M0.0 0.0L126.5 0.0L126.5 40.0L0.0 40.0Z" stroke="#a1a1a1" stroke-width="2.0" stroke-dasharray="none" opacity="1.0" fill="#8a8a8a"/><g id="ProcessOnG1031" transform="matrix(1.0,0.0,0.0,1.0,10.0,3.75)"><text id="ProcessOnText1032" fill="#ffffff" font-size="13" x="52.25" y="13.325" font-family="微软雅黑" font-weight="normal" font-style="normal" text-decoration="none" family="微软雅黑" text-anchor="middle" size="13">注册邮箱中收到确</text><text id="ProcessOnText1033" fill="#ffffff" font-size="13" x="52.25" y="29.575" font-family="微软雅黑" font-weight="normal" font-style="normal" text-decoration="none" family="微软雅黑" text-anchor="middle" size="13">认链接，点击确认</text></g></g><g id="ProcessOnG1034"><path id="ProcessOnPath1035" d="M475.5 428.0L475.5 440.5L475.5 440.5L475.5 441.5" stroke="#e5e5e5" stroke-width="2.0" stroke-dasharray="none" fill="none" marker-end="url(#ProcessOnMarker1036)"/></g><g id="ProcessOnG1038" transform="matrix(1.0,0.0,0.0,1.0,425.5,453.0)" opacity="1.0"><path id="ProcessOnPath1039" d="M0.0 0.0L100.0 0.0L100.0 28.0L0.0 28.0Z" stroke="#a1a1a1" stroke-width="2.0" stroke-dasharray="none" opacity="1.0" fill="#8a8a8a"/><g id="ProcessOnG1040" transform="matrix(1.0,0.0,0.0,1.0,10.0,5.875)"><text id="ProcessOnText1041" fill="#ffffff" font-size="13" x="39.0" y="13.325" font-family="微软雅黑" font-weight="normal" font-style="normal" text-decoration="none" family="微软雅黑" text-anchor="middle" size="13">等待审核</text></g></g><g id="ProcessOnG1042"><path id="ProcessOnPath1043" d="M475.5 481.0L475.5 491.5L475.5 491.5L475.5 492.5" stroke="#e5e5e5" stroke-width="2.0" stroke-dasharray="none" fill="none" marker-end="url(#ProcessOnMarker1044)"/></g><g id="ProcessOnG1046" transform="matrix(1.0,0.0,0.0,1.0,412.25,502.0)" opacity="1.0"><path id="ProcessOnPath1047" d="M0.0 0.0L126.5 0.0L126.5 42.0L0.0 42.0Z" stroke="#a1a1a1" stroke-width="2.0" stroke-dasharray="none" opacity="1.0" fill="#8a8a8a"/><g id="ProcessOnG1048" transform="matrix(1.0,0.0,0.0,1.0,10.0,4.75)"><text id="ProcessOnText1049" fill="#ffffff" font-size="13" x="52.25" y="13.325" font-family="微软雅黑" font-weight="normal" font-style="normal" text-decoration="none" family="微软雅黑" text-anchor="middle" size="13">注册邮箱中收到审</text><text id="ProcessOnText1050" fill="#ffffff" font-size="13" x="52.25" y="29.575" font-family="微软雅黑" font-weight="normal" font-style="normal" text-decoration="none" family="微软雅黑" text-anchor="middle" size="13">核结果通知</text></g></g><g id="ProcessOnG1051"><path id="ProcessOnPath1052" d="M475.5 544.0L475.5 556.0L475.5 556.0L475.5 557.0" stroke="#e5e5e5" stroke-width="2.0" stroke-dasharray="none" fill="none" marker-end="url(#ProcessOnMarker1053)"/></g><g id="ProcessOnG1055" transform="matrix(1.0,0.0,0.0,1.0,415.5,568.0)" opacity="1.0"><path id="ProcessOnPath1056" d="M0.0 15.0L60.0 0.0L120.0 15.0L60.0 30.0Z" stroke="#a1a1a1" stroke-width="2.0" stroke-dasharray="none" opacity="1.0" fill="#8a8a8a"/><g id="ProcessOnG1057" transform="matrix(1.0,0.0,0.0,1.0,10.0,7.025)"><text id="ProcessOnText1058" fill="#ffffff" font-size="13" x="49.0" y="13.325" font-family="微软雅黑" font-weight="normal" font-style="normal" text-decoration="none" family="微软雅黑" text-anchor="middle" size="13">审核通过？</text></g></g><g id="ProcessOnG1059"><path id="ProcessOnPath1060" d="M475.5 598.0L475.5 608.0L475.5 608.0L475.5 609.0" stroke="#e5e5e5" stroke-width="2.0" stroke-dasharray="none" fill="none" marker-end="url(#ProcessOnMarker1061)"/></g><g id="ProcessOnG1063" transform="matrix(1.0,0.0,0.0,1.0,425.5,618.0)" opacity="1.0"><path id="ProcessOnPath1064" d="M0.0 4.0Q0.0 0.0 4.0 0.0L96.0 0.0Q100.0 0.0 100.0 4.0L100.0 21.0Q100.0 25.0 96.0 25.0L4.0 25.0Q0.0 25.0 0.0 21.0Z" stroke="#a1a1a1" stroke-width="2.0" stroke-dasharray="none" opacity="1.0" fill="#8a8a8a"/><g id="ProcessOnG1065" transform="matrix(1.0,0.0,0.0,1.0,10.0,4.375)"><text id="ProcessOnText1066" fill="#ffffff" font-size="13" x="39.0" y="13.325" font-family="微软雅黑" font-weight="normal" font-style="normal" text-decoration="none" family="微软雅黑" text-anchor="middle" size="13">登录</text></g></g><g id="ProcessOnG1067"><path id="ProcessOnPath1068" d="M535.5 583.0L633.75 583.0L633.75 602.7639320225002" stroke="#e5e5e5" stroke-width="2.0" stroke-dasharray="none" fill="none" marker-end="url(#ProcessOnMarker1069)"/></g><g id="ProcessOnG1071" transform="matrix(1.0,0.0,0.0,1.0,570.25,618.0)" opacity="1.0"><path id="ProcessOnPath1072" d="M0.0 4.0Q0.0 0.0 4.0 0.0L123.0 0.0Q127.0 0.0 127.0 4.0L127.0 21.0Q127.0 25.0 123.0 25.0L4.0 25.0Q0.0 25.0 0.0 21.0Z" stroke="#a1a1a1" stroke-width="2.0" stroke-dasharray="none" opacity="1.0" fill="#8a8a8a"/><g id="ProcessOnG1073" transform="matrix(1.0,0.0,0.0,1.0,10.0,4.375)"><text id="ProcessOnText1074" fill="#ffffff" font-size="13" x="52.5" y="13.325" font-family="微软雅黑" font-weight="normal" font-style="normal" text-decoration="none" family="微软雅黑" text-anchor="middle" size="13">与我们联系</text></g></g><g id="ProcessOnG1075" transform="matrix(1.0,0.0,0.0,1.0,410.25,588.0)" opacity="1.0"><path id="ProcessOnPath1076" d="M0.0 0.0L160.0 0.0L160.0 40.0L0.0 40.0Z" stroke="none" stroke-width="0.0" stroke-dasharray="none" opacity="1.0" fill="none"/><g id="ProcessOnG1077" transform="matrix(1.0,0.0,0.0,1.0,0.0,11.875)"><text id="ProcessOnText1078" fill="#ffffff" font-size="13" x="79.0" y="13.325" font-family="微软雅黑" font-weight="normal" font-style="normal" text-decoration="none" family="微软雅黑" text-anchor="middle" size="13">是</text></g></g><g id="ProcessOnG1079" transform="matrix(1.0,0.0,0.0,1.0,503.0,554.0)" opacity="1.0"><path id="ProcessOnPath1080" d="M0.0 0.0L160.0 0.0L160.0 40.0L0.0 40.0Z" stroke="none" stroke-width="0.0" stroke-dasharray="none" opacity="1.0" fill="none"/><g id="ProcessOnG1081" transform="matrix(1.0,0.0,0.0,1.0,0.0,11.875)"><text id="ProcessOnText1082" fill="#ffffff" font-size="13" x="79.0" y="13.325" font-family="微软雅黑" font-weight="normal" font-style="normal" text-decoration="none" family="微软雅黑" text-anchor="middle" size="13">否</text></g></g><g id="ProcessOnG1083" transform="matrix(1.0,0.0,0.0,1.0,454.5,663.0)" opacity="1.0"><path id="ProcessOnPath1084" d="M0.0 0.0L160.5 0.0L160.5 25.0L0.0 25.0Z" stroke="none" stroke-width="0.0" stroke-dasharray="none" opacity="1.0" fill="none"/><g id="ProcessOnG1085" transform="matrix(1.0,0.0,0.0,1.0,0.0,4.375)"><text id="ProcessOnText1086" fill="#ffffff" font-size="13" x="79.25" y="13.325" font-family="微软雅黑" font-weight="bold" font-style="normal" text-decoration="none" family="微软雅黑" text-anchor="middle" size="13">用户注册流程图</text></g></g></g></g></svg>